<svg xmlns="http://www.w3.org/2000/svg" width="132.65" height="35.001" viewBox="0 0 132.65 35.001">
  <g id="Groupe_253" data-name="Groupe 253" transform="translate(1399 346)">
    <path id="Tracé_203" data-name="Tracé 203" d="M1.624-13.628H11.56v1.67H3.423v4.138h7.524v1.577H3.423v4.62H11.7V0H1.624ZM13.461-6.151h4.657v1.716H13.461Z" transform="translate(-1329 -322)" fill="#fbb03b"/>
    <path id="noun_cloth_2129414" d="M437.579,459a1.344,1.344,0,0,1-1.3-.867l-3.26-8.556H418.69a2.69,2.69,0,0,1-2.69-2.692V426.692A2.691,2.691,0,0,1,418.7,424h18.843a1.346,1.346,0,0,1,1.218.773l4.07,8.65h16.252a2.69,2.69,0,0,1,2.69,2.692v20.192a2.691,2.691,0,0,1-2.7,2.692Zm-.895-32.308H418.7s0,6.731,0,20.192h27.494Zm7.41,9.423,5.432,11.542a1.346,1.346,0,0,1-.332,1.586l-8.073,7.064h17.952s0-6.731,0-20.192Zm-5.986,19.251,6.617-5.79H435.9Z" transform="translate(-1815 -770)"/>
    <path id="Tracé_204" data-name="Tracé 204" d="M21.653-4.4A3.724,3.724,0,0,0,22.2-2.514,3.628,3.628,0,0,0,25.438-1.16a5.731,5.731,0,0,0,1.893-.3,2.1,2.1,0,0,0,1.651-2.06,1.778,1.778,0,0,0-.7-1.586,7.026,7.026,0,0,0-2.208-.807l-1.846-.417a8.36,8.36,0,0,1-2.561-.9,2.851,2.851,0,0,1-1.3-2.551,3.929,3.929,0,0,1,1.271-3.015,5.1,5.1,0,0,1,3.6-1.178,6.252,6.252,0,0,1,3.641,1.034,3.733,3.733,0,0,1,1.5,3.307H28.648a3.415,3.415,0,0,0-.594-1.679,3.45,3.45,0,0,0-2.867-1.067,3.316,3.316,0,0,0-2.347.687,2.149,2.149,0,0,0-.714,1.6,1.558,1.558,0,0,0,.835,1.466,12.253,12.253,0,0,0,2.477.742l1.911.436a5.856,5.856,0,0,1,2.134.863,3.231,3.231,0,0,1,1.3,2.774A3.463,3.463,0,0,1,29.135-.575,7.375,7.375,0,0,1,25.309.4a5.723,5.723,0,0,1-3.98-1.3,4.382,4.382,0,0,1-1.41-3.5ZM32.9-13.675h1.67v5.084a4.821,4.821,0,0,1,1.067-1.058,3.6,3.6,0,0,1,2.013-.529,2.977,2.977,0,0,1,2.932,1.512A5.157,5.157,0,0,1,41-6.374V0H39.28V-6.262A3.5,3.5,0,0,0,39-7.867a1.778,1.778,0,0,0-1.707-.816,2.844,2.844,0,0,0-1.883.714,3.435,3.435,0,0,0-.844,2.7V0H32.9Zm14.51,12.6a2.3,2.3,0,0,0,2.278-1.257,6.263,6.263,0,0,0,.617-2.8,4.98,4.98,0,0,0-.445-2.264,2.505,2.505,0,0,0-2.431-1.373A2.4,2.4,0,0,0,45.2-7.6a5.418,5.418,0,0,0-.7,2.82,4.713,4.713,0,0,0,.7,2.644A2.451,2.451,0,0,0,47.407-1.076Zm.065-9.147a4.5,4.5,0,0,1,3.247,1.28,5,5,0,0,1,1.327,3.767,6.462,6.462,0,0,1-1.169,3.971A4.229,4.229,0,0,1,47.25.362a4.1,4.1,0,0,1-3.256-1.387A5.478,5.478,0,0,1,42.787-4.75a5.927,5.927,0,0,1,1.271-3.989A4.266,4.266,0,0,1,47.472-10.224Zm10.752,9.1A2.382,2.382,0,0,0,60.168-2.1a4.658,4.658,0,0,0,.775-2.927A5.464,5.464,0,0,0,60.6-7.069a2.369,2.369,0,0,0-2.375-1.642A2.368,2.368,0,0,0,55.85-6.977a6.876,6.876,0,0,0-.343,2.356,5,5,0,0,0,.343,1.958A2.368,2.368,0,0,0,58.225-1.123ZM53.9-9.89h1.624v1.317A4.053,4.053,0,0,1,56.62-9.621a3.524,3.524,0,0,1,1.985-.557,3.733,3.733,0,0,1,2.867,1.294,5.3,5.3,0,0,1,1.178,3.7q0,3.247-1.7,4.639a3.836,3.836,0,0,1-2.5.881,3.4,3.4,0,0,1-1.883-.492,4.339,4.339,0,0,1-.993-.956V3.961H53.9Z" transform="translate(-1329 -322)"/>
  </g>
</svg>
